<svg aria-hidden="true" style="position: absolute; width: 0; height: 0; overflow: hidden;" version="1.1" xmlns="http://www.w3.org/2000/svg" xmlns:xlink="http://www.w3.org/1999/xlink">
<defs>
<symbol id="icon-Group" viewBox="0 0 111 32">
<path fill="#000" style="fill: var(--color1, #000)" d="M106.666 32h-102.564c-2.255 0-4.103-1.801-4.103-4v-24c0-2.199 1.847-4 4.103-4h102.564c2.255 0 4.103 1.801 4.103 4v24c0 2.199-1.847 4-4.103 4z"></path>
<path fill="#a6a6a6" style="fill: var(--color2, #a6a6a6)" d="M106.666 0.641c1.9 0 3.446 1.507 3.446 3.359v24c0 1.852-1.546 3.359-3.446 3.359h-102.564c-1.899 0-3.445-1.507-3.445-3.359v-24c0-1.852 1.546-3.359 3.445-3.359h102.564zM106.666 0h-102.564c-2.255 0-4.103 1.801-4.103 4v24c0 2.199 1.847 4 4.103 4h102.564c2.255 0 4.103-1.801 4.103-4v-24c0-2.199-1.847-4-4.103-4z"></path>
<path fill="#000" style="fill: var(--color1, #000)" d="M8.562 6.031c-0.241 0.246-0.38 0.629-0.38 1.125v17.692c0 0.496 0.139 0.879 0.38 1.125l0.059 0.054 10.168-9.91v-0.234l-10.168-9.91-0.059 0.058z"></path>
<path fill="#000" style="fill: var(--color1, #000)" d="M22.175 19.422l-3.386-3.305v-0.234l3.39-3.305 0.076 0.043 4.014 2.227c1.146 0.632 1.146 1.672 0 2.308l-4.094 2.266z"></path>
<path fill="#000" style="fill: var(--color1, #000)" d="M22.255 19.379l-3.466-3.379-10.228 9.973c0.381 0.39 1.001 0.437 1.707 0.047l11.987-6.641z"></path>
<path fill="#000" style="fill: var(--color1, #000)" d="M22.255 12.621l-11.987-6.641c-0.706-0.386-1.326-0.339-1.707 0.051l10.228 9.969 3.466-3.379z"></path>
<path fill="#fff" style="fill: var(--color3, #fff)" d="M38.907 8.195c0 0.668-0.205 1.203-0.609 1.602-0.465 0.473-1.070 0.711-1.811 0.711-0.709 0-1.314-0.242-1.81-0.719-0.497-0.484-0.746-1.078-0.746-1.789s0.248-1.305 0.746-1.785c0.496-0.481 1.102-0.723 1.81-0.723 0.353 0 0.689 0.071 1.010 0.203 0.32 0.133 0.581 0.313 0.769 0.535l-0.429 0.422c-0.329-0.379-0.777-0.566-1.351-0.566-0.517 0-0.965 0.176-1.346 0.531-0.376 0.356-0.565 0.817-0.565 1.383s0.189 1.031 0.565 1.387c0.381 0.351 0.829 0.531 1.346 0.531 0.549 0 1.010-0.18 1.374-0.535 0.24-0.235 0.376-0.559 0.412-0.973h-1.787v-0.578h2.384c0.029 0.125 0.037 0.246 0.037 0.363z"></path>
<path fill="#fff" style="fill: var(--color3, #fff)" d="M42.688 6.191h-2.239v1.52h2.018v0.578h-2.018v1.52h2.239v0.589h-2.873v-4.796h2.873v0.589z"></path>
<path fill="#fff" style="fill: var(--color3, #fff)" d="M45.357 10.398h-0.634v-4.207h-1.373v-0.589h3.382v0.589h-1.374v4.207z"></path>
<path fill="#fff" style="fill: var(--color3, #fff)" d="M49.178 10.398v-4.796h0.633v4.796h-0.633z"></path>
<path fill="#fff" style="fill: var(--color3, #fff)" d="M52.616 10.398h-0.629v-4.207h-1.378v-0.589h3.386v0.589h-1.378v4.207z"></path>
<path fill="#fff" style="fill: var(--color3, #fff)" d="M60.397 9.781c-0.485 0.485-1.086 0.727-1.803 0.727-0.721 0-1.322-0.242-1.807-0.727-0.484-0.484-0.725-1.078-0.725-1.781s0.241-1.297 0.725-1.781c0.485-0.485 1.086-0.727 1.807-0.727 0.713 0 1.314 0.242 1.799 0.731 0.488 0.488 0.729 1.078 0.729 1.777 0 0.703-0.241 1.297-0.725 1.781zM57.255 9.379c0.365 0.359 0.809 0.539 1.338 0.539 0.525 0 0.973-0.18 1.334-0.539 0.364-0.359 0.549-0.82 0.549-1.379s-0.185-1.020-0.549-1.379c-0.361-0.359-0.809-0.539-1.334-0.539-0.529 0-0.973 0.18-1.338 0.539s-0.549 0.82-0.549 1.379 0.185 1.020 0.549 1.379z"></path>
<path fill="#fff" style="fill: var(--color3, #fff)" d="M62.011 10.398v-4.796h0.769l2.392 3.73h0.028l-0.028-0.922v-2.808h0.633v4.796h-0.66l-2.505-3.914h-0.028l0.028 0.926v2.988h-0.629z"></path>
<path fill="#fff" style="fill: var(--color3, #fff)" d="M55.906 17.402c-1.927 0-3.502 1.43-3.502 3.403 0 1.957 1.574 3.402 3.502 3.402 1.931 0 3.506-1.445 3.506-3.402 0-1.973-1.574-3.403-3.506-3.403zM55.906 22.867c-1.057 0-1.967-0.851-1.967-2.062 0-1.227 0.91-2.063 1.967-2.063s1.971 0.836 1.971 2.063c0 1.211-0.914 2.062-1.971 2.062zM48.266 17.402c-1.931 0-3.502 1.43-3.502 3.403 0 1.957 1.57 3.402 3.502 3.402 1.93 0 3.502-1.445 3.502-3.402 0-1.973-1.571-3.403-3.502-3.403zM48.266 22.867c-1.058 0-1.971-0.851-1.971-2.062 0-1.227 0.913-2.063 1.971-2.063 1.057 0 1.967 0.836 1.967 2.063 0 1.211-0.91 2.062-1.967 2.062zM39.174 18.445v1.446h3.542c-0.104 0.808-0.38 1.402-0.805 1.816-0.517 0.5-1.322 1.055-2.736 1.055-2.179 0-3.886-1.715-3.886-3.84s1.707-3.84 3.886-3.84c1.178 0 2.036 0.449 2.669 1.031l1.045-1.019c-0.885-0.824-2.063-1.457-3.714-1.457-2.989 0-5.501 2.371-5.501 5.285s2.512 5.285 5.501 5.285c1.615 0 2.829-0.516 3.783-1.484 0.977-0.953 1.282-2.293 1.282-3.375 0-0.336-0.029-0.645-0.080-0.903h-4.985zM76.35 19.566c-0.288-0.761-1.177-2.164-2.988-2.164-1.795 0-3.289 1.379-3.289 3.403 0 1.906 1.479 3.402 3.462 3.402 1.603 0 2.528-0.953 2.908-1.508l-1.19-0.773c-0.397 0.566-0.937 0.941-1.719 0.941-0.777 0-1.334-0.347-1.69-1.031l4.668-1.883-0.161-0.387zM71.591 20.699c-0.040-1.312 1.045-1.984 1.823-1.984 0.609 0 1.126 0.297 1.298 0.722l-3.121 1.262zM67.797 24h1.534v-10h-1.534v10zM65.284 18.16h-0.052c-0.345-0.398-1.002-0.758-1.834-0.758-1.748 0-3.346 1.496-3.346 3.414 0 1.907 1.598 3.391 3.346 3.391 0.833 0 1.49-0.363 1.834-0.773h0.052v0.488c0 1.301-0.713 2-1.863 2-0.937 0-1.519-0.66-1.759-1.215l-1.335 0.543c0.385 0.902 1.403 2.012 3.093 2.012 1.799 0 3.317-1.032 3.317-3.543v-6.11h-1.454v0.551zM63.529 22.867c-1.057 0-1.943-0.863-1.943-2.051 0-1.199 0.886-2.074 1.943-2.074 1.042 0 1.863 0.875 1.863 2.074 0 1.188-0.822 2.051-1.863 2.051zM83.534 14h-3.67v10h1.53v-3.789h2.14c1.699 0 3.366-1.199 3.366-3.106s-1.671-3.105-3.366-3.105zM83.574 18.82h-2.18v-3.429h2.18c1.142 0 1.794 0.925 1.794 1.714 0 0.774-0.652 1.715-1.794 1.715zM93.033 17.383c-1.105 0-2.255 0.476-2.728 1.531l1.358 0.555c0.292-0.555 0.83-0.735 1.398-0.735 0.794 0 1.599 0.465 1.612 1.286v0.105c-0.277-0.156-0.87-0.387-1.599-0.387-1.462 0-2.953 0.785-2.953 2.25 0 1.34 1.198 2.203 2.545 2.203 1.030 0 1.598-0.453 1.955-0.98h0.052v0.773h1.478v-3.836c0-1.773-1.358-2.765-3.117-2.765zM92.848 22.863c-0.5 0-1.198-0.242-1.198-0.847 0-0.774 0.87-1.071 1.622-1.071 0.674 0 0.99 0.145 1.399 0.336-0.12 0.926-0.938 1.582-1.824 1.582zM101.534 17.602l-1.759 4.335h-0.052l-1.818-4.335h-1.65l2.732 6.058-1.559 3.371h1.599l4.21-9.429h-1.703zM87.74 24h1.535v-10h-1.535v10z"></path>
</symbol>
<symbol id="icon-App-Store" viewBox="0 0 111 32">
<path fill="#000" style="fill: var(--color1, #000)" d="M110.154 28.309c0 1.705-1.41 3.087-3.154 3.087h-103.226c-1.743 0-3.158-1.381-3.158-3.087v-24.615c0-1.705 1.415-3.091 3.158-3.091h103.225c1.745 0 3.154 1.386 3.154 3.091l0.001 24.615z"></path>
<path fill="#a6a6a6" style="fill: var(--color2, #a6a6a6)" d="M106.666 0.641c1.9 0 3.446 1.507 3.446 3.359v24c0 1.852-1.546 3.359-3.446 3.359h-102.564c-1.899 0-3.445-1.507-3.445-3.359v-24c0-1.852 1.546-3.359 3.445-3.359h102.564zM106.666 0h-102.564c-2.255 0-4.103 1.801-4.103 4v24c0 2.199 1.847 4 4.103 4h102.564c2.255 0 4.103-1.801 4.103-4v-24c0-2.199-1.847-4-4.103-4z"></path>
<path fill="#fff" style="fill: var(--color3, #fff)" d="M24.72 15.827c-0.024-2.578 2.165-3.833 2.265-3.891-1.24-1.762-3.161-2.003-3.837-2.022-1.614-0.166-3.179 0.942-4.002 0.942-0.839 0-2.105-0.926-3.469-0.898-1.756 0.026-3.399 1.018-4.299 2.557-1.859 3.138-0.473 7.75 1.309 10.287 0.891 1.242 1.932 2.63 3.295 2.581 1.333-0.054 1.831-0.829 3.44-0.829 1.594 0 2.062 0.829 3.452 0.798 1.431-0.022 2.332-1.248 3.192-2.502 1.030-1.424 1.443-2.826 1.46-2.898-0.034-0.011-2.779-1.033-2.806-4.123z"></path>
<path fill="#fff" style="fill: var(--color3, #fff)" d="M22.095 8.245c0.717-0.874 1.208-2.064 1.072-3.271-1.038 0.045-2.336 0.7-3.083 1.555-0.661 0.754-1.252 1.989-1.099 3.15 1.166 0.085 2.363-0.574 3.111-1.434z"></path>
<path fill="#fff" style="fill: var(--color3, #fff)" d="M40.246 8.007c0 0.942-0.29 1.65-0.868 2.126-0.536 0.439-1.297 0.659-2.283 0.659-0.489 0-0.907-0.021-1.258-0.062v-5.145c0.457-0.072 0.949-0.109 1.481-0.109 0.94 0 1.648 0.199 2.125 0.598 0.535 0.45 0.803 1.094 0.803 1.933zM39.34 8.030c0-0.61-0.166-1.078-0.497-1.405s-0.816-0.489-1.453-0.489c-0.271 0-0.501 0.018-0.693 0.054v3.911c0.106 0.016 0.3 0.023 0.581 0.023 0.658 0 1.166-0.178 1.524-0.535s0.538-0.877 0.538-1.56z"></path>
<path fill="#fff" style="fill: var(--color3, #fff)" d="M45.054 8.83c0 0.58-0.17 1.055-0.51 1.428-0.356 0.383-0.828 0.574-1.417 0.574-0.568 0-1.020-0.183-1.357-0.551s-0.505-0.83-0.505-1.389c0-0.584 0.173-1.063 0.521-1.435s0.816-0.558 1.405-0.558c0.568 0 1.024 0.183 1.369 0.55 0.328 0.357 0.493 0.818 0.493 1.381zM44.162 8.857c0-0.348-0.077-0.646-0.231-0.895-0.181-0.301-0.437-0.451-0.771-0.451-0.345 0-0.608 0.15-0.789 0.451-0.154 0.249-0.231 0.552-0.231 0.91 0 0.348 0.077 0.646 0.231 0.895 0.186 0.301 0.446 0.451 0.78 0.451 0.328 0 0.586-0.153 0.771-0.459 0.159-0.254 0.239-0.554 0.239-0.902z"></path>
<path fill="#fff" style="fill: var(--color3, #fff)" d="M51.499 6.975l-1.21 3.771h-0.788l-0.501-1.638c-0.127-0.409-0.231-0.815-0.311-1.218h-0.016c-0.075 0.414-0.178 0.82-0.311 1.218l-0.532 1.638h-0.797l-1.138-3.771h0.884l0.437 1.793c0.106 0.424 0.193 0.828 0.263 1.21h0.016c0.064-0.315 0.17-0.717 0.319-1.202l0.549-1.8h0.701l0.526 1.762c0.127 0.43 0.231 0.843 0.31 1.242h0.024c0.058-0.388 0.146-0.802 0.263-1.242l0.469-1.762 0.844-0.001z"></path>
<path fill="#fff" style="fill: var(--color3, #fff)" d="M55.957 10.746h-0.86v-2.16c0-0.666-0.259-0.998-0.779-0.998-0.255 0-0.461 0.091-0.621 0.274-0.158 0.183-0.239 0.399-0.239 0.646v2.237h-0.86v-2.693c0-0.331-0.011-0.69-0.031-1.079h0.756l0.040 0.59h0.024c0.1-0.183 0.249-0.334 0.446-0.455 0.233-0.141 0.494-0.212 0.779-0.212 0.361 0 0.661 0.114 0.9 0.342 0.297 0.279 0.446 0.696 0.446 1.25v2.259z"></path>
<path fill="#fff" style="fill: var(--color3, #fff)" d="M58.329 10.746h-0.859v-5.502h0.859v5.502z"></path>
<path fill="#fff" style="fill: var(--color3, #fff)" d="M63.391 8.83c0 0.58-0.17 1.055-0.51 1.428-0.356 0.383-0.829 0.574-1.417 0.574-0.569 0-1.021-0.183-1.357-0.551s-0.505-0.83-0.505-1.389c0-0.584 0.173-1.063 0.521-1.435s0.816-0.558 1.404-0.558c0.569 0 1.024 0.183 1.37 0.55 0.329 0.357 0.494 0.818 0.494 1.381zM62.498 8.857c0-0.348-0.077-0.646-0.231-0.895-0.18-0.301-0.437-0.451-0.77-0.451-0.346 0-0.609 0.15-0.788 0.451-0.154 0.249-0.231 0.552-0.231 0.91 0 0.348 0.077 0.646 0.231 0.895 0.186 0.301 0.446 0.451 0.78 0.451 0.328 0 0.585-0.153 0.77-0.459 0.16-0.254 0.239-0.554 0.239-0.902z"></path>
<path fill="#fff" style="fill: var(--color3, #fff)" d="M67.553 10.746h-0.772l-0.064-0.434h-0.024c-0.264 0.346-0.641 0.52-1.13 0.52-0.365 0-0.66-0.114-0.883-0.342-0.202-0.206-0.303-0.463-0.303-0.768 0-0.461 0.197-0.812 0.593-1.055s0.952-0.362 1.668-0.357v-0.070c0-0.497-0.268-0.745-0.803-0.745-0.382 0-0.718 0.094-1.009 0.279l-0.175-0.55c0.359-0.217 0.803-0.326 1.327-0.326 1.011 0 1.518 0.52 1.518 1.56v1.389c0 0.377 0.018 0.677 0.055 0.899zM66.66 9.45v-0.582c-0.949-0.016-1.423 0.238-1.423 0.76 0 0.197 0.054 0.344 0.165 0.442s0.252 0.147 0.42 0.147c0.189 0 0.366-0.058 0.526-0.174 0.162-0.117 0.261-0.265 0.298-0.446 0.009-0.041 0.014-0.090 0.014-0.147z"></path>
<path fill="#fff" style="fill: var(--color3, #fff)" d="M72.439 10.746h-0.763l-0.040-0.606h-0.024c-0.244 0.461-0.658 0.691-1.242 0.691-0.466 0-0.854-0.178-1.162-0.535s-0.462-0.82-0.462-1.389c0-0.61 0.167-1.105 0.502-1.482 0.324-0.352 0.721-0.528 1.194-0.528 0.519 0 0.883 0.17 1.090 0.512h0.016v-2.165h0.861v4.486c0 0.367 0.010 0.706 0.030 1.016zM71.548 9.156v-0.629c0-0.109-0.008-0.197-0.023-0.264-0.049-0.202-0.153-0.371-0.311-0.508-0.16-0.137-0.353-0.206-0.575-0.206-0.321 0-0.572 0.124-0.757 0.373-0.183 0.249-0.276 0.566-0.276 0.954 0 0.373 0.088 0.675 0.265 0.908 0.186 0.248 0.437 0.372 0.751 0.372 0.282 0 0.508-0.103 0.679-0.31 0.166-0.191 0.247-0.422 0.247-0.69z"></path>
<path fill="#fff" style="fill: var(--color3, #fff)" d="M79.793 8.83c0 0.58-0.17 1.055-0.51 1.428-0.356 0.383-0.827 0.574-1.417 0.574-0.567 0-1.019-0.183-1.357-0.551-0.337-0.367-0.505-0.83-0.505-1.389 0-0.584 0.173-1.063 0.521-1.435s0.815-0.558 1.406-0.558c0.567 0 1.024 0.183 1.369 0.55 0.328 0.357 0.493 0.818 0.493 1.381zM78.902 8.857c0-0.348-0.077-0.646-0.231-0.895-0.181-0.301-0.437-0.451-0.772-0.451-0.345 0-0.607 0.15-0.789 0.451-0.154 0.249-0.23 0.552-0.23 0.91 0 0.348 0.077 0.646 0.23 0.895 0.186 0.301 0.446 0.451 0.78 0.451 0.329 0 0.587-0.153 0.772-0.459 0.158-0.254 0.239-0.554 0.239-0.902z"></path>
<path fill="#fff" style="fill: var(--color3, #fff)" d="M84.417 10.746h-0.859v-2.16c0-0.666-0.259-0.998-0.78-0.998-0.255 0-0.461 0.091-0.62 0.274s-0.239 0.399-0.239 0.646v2.237h-0.86v-2.693c0-0.331-0.010-0.69-0.031-1.079h0.755l0.040 0.59h0.024c0.101-0.183 0.25-0.334 0.446-0.455 0.234-0.141 0.494-0.212 0.78-0.212 0.36 0 0.66 0.114 0.899 0.342 0.298 0.279 0.446 0.696 0.446 1.25v2.259z"></path>
<path fill="#fff" style="fill: var(--color3, #fff)" d="M90.204 7.603h-0.946v1.832c0 0.466 0.168 0.698 0.501 0.698 0.154 0 0.282-0.013 0.383-0.039l0.022 0.636c-0.17 0.062-0.393 0.094-0.668 0.094-0.34 0-0.604-0.101-0.795-0.302-0.192-0.202-0.287-0.541-0.287-1.017v-1.902h-0.566v-0.628h0.566v-0.691l0.842-0.248v0.938h0.947v0.629h0.001z"></path>
<path fill="#fff" style="fill: var(--color3, #fff)" d="M94.756 10.746h-0.861v-2.144c0-0.676-0.259-1.014-0.778-1.014-0.399 0-0.671 0.196-0.821 0.588-0.025 0.082-0.040 0.183-0.040 0.302v2.268h-0.859v-5.501h0.859v2.273h0.017c0.271-0.414 0.658-0.62 1.162-0.62 0.356 0 0.65 0.114 0.884 0.342 0.291 0.284 0.438 0.706 0.438 1.265v2.242z"></path>
<path fill="#fff" style="fill: var(--color3, #fff)" d="M99.452 8.682c0 0.15-0.011 0.277-0.032 0.38h-2.578c0.011 0.373 0.134 0.657 0.373 0.854 0.218 0.176 0.5 0.264 0.844 0.264 0.382 0 0.73-0.059 1.043-0.178l0.135 0.582c-0.367 0.155-0.799 0.233-1.298 0.233-0.599 0-1.071-0.172-1.412-0.516-0.343-0.344-0.513-0.806-0.513-1.385 0-0.569 0.159-1.042 0.478-1.42 0.334-0.403 0.784-0.605 1.353-0.605 0.556 0 0.978 0.202 1.264 0.605 0.231 0.32 0.345 0.716 0.345 1.186zM98.631 8.466c0.007-0.249-0.050-0.463-0.167-0.644-0.149-0.233-0.377-0.35-0.684-0.35-0.281 0-0.51 0.114-0.684 0.342-0.143 0.182-0.227 0.398-0.255 0.652h1.79z"></path>
<path fill="#fff" style="fill: var(--color3, #fff)" d="M44.016 25.203h-1.863l-1.021-3.127h-3.548l-0.972 3.127h-1.814l3.515-10.646h2.171l3.532 10.646zM40.825 20.764l-0.923-2.78c-0.098-0.284-0.281-0.953-0.551-2.006h-0.033c-0.108 0.453-0.281 1.122-0.519 2.006l-0.907 2.78h2.932z"></path>
<path fill="#fff" style="fill: var(--color3, #fff)" d="M53.056 21.271c0 1.306-0.362 2.338-1.086 3.095-0.648 0.674-1.453 1.011-2.414 1.011-1.037 0-1.782-0.363-2.236-1.090h-0.033v4.044h-1.749v-8.278c0-0.821-0.022-1.663-0.065-2.527h1.538l0.098 1.217h0.033c0.583-0.917 1.469-1.374 2.657-1.374 0.929 0 1.704 0.358 2.325 1.074 0.622 0.717 0.932 1.659 0.932 2.828zM51.274 21.333c0-0.747-0.172-1.363-0.519-1.848-0.378-0.506-0.886-0.758-1.523-0.758-0.432 0-0.824 0.141-1.174 0.418-0.351 0.28-0.581 0.646-0.688 1.098-0.054 0.211-0.081 0.384-0.081 0.52v1.28c0 0.558 0.176 1.030 0.527 1.414s0.807 0.577 1.369 0.577c0.659 0 1.172-0.248 1.538-0.742s0.551-1.148 0.551-1.959z"></path>
<path fill="#fff" style="fill: var(--color3, #fff)" d="M62.112 21.271c0 1.306-0.362 2.338-1.086 3.095-0.647 0.674-1.452 1.011-2.413 1.011-1.037 0-1.782-0.363-2.235-1.090h-0.033v4.044h-1.749v-8.278c0-0.821-0.022-1.663-0.065-2.527h1.538l0.098 1.217h0.033c0.583-0.917 1.468-1.374 2.657-1.374 0.928 0 1.703 0.358 2.325 1.074 0.62 0.717 0.93 1.659 0.93 2.828zM60.33 21.333c0-0.747-0.173-1.363-0.519-1.848-0.378-0.506-0.885-0.758-1.522-0.758-0.432 0-0.824 0.141-1.175 0.418-0.351 0.28-0.58 0.646-0.688 1.098-0.053 0.211-0.081 0.384-0.081 0.52v1.28c0 0.558 0.176 1.030 0.525 1.414 0.351 0.384 0.807 0.577 1.37 0.577 0.659 0 1.172-0.248 1.538-0.742s0.551-1.148 0.551-1.959z"></path>
<path fill="#fff" style="fill: var(--color3, #fff)" d="M72.237 22.218c0 0.906-0.322 1.642-0.97 2.211-0.711 0.622-1.702 0.932-2.974 0.932-1.175 0-2.117-0.221-2.83-0.663l0.406-1.422c0.768 0.453 1.61 0.68 2.529 0.68 0.659 0 1.172-0.146 1.54-0.435 0.367-0.29 0.55-0.678 0.55-1.163 0-0.432-0.151-0.796-0.454-1.091-0.301-0.295-0.804-0.57-1.506-0.823-1.912-0.695-2.867-1.714-2.867-3.053 0-0.875 0.335-1.593 1.006-2.151 0.668-0.559 1.559-0.838 2.673-0.838 0.993 0 1.819 0.169 2.478 0.506l-0.437 1.39c-0.615-0.326-1.311-0.49-2.090-0.49-0.615 0-1.097 0.148-1.441 0.442-0.291 0.263-0.437 0.584-0.437 0.964 0 0.421 0.166 0.769 0.501 1.042 0.292 0.253 0.821 0.526 1.589 0.822 0.939 0.369 1.63 0.8 2.073 1.294 0.442 0.493 0.663 1.11 0.663 1.846z"></path>
<path fill="#fff" style="fill: var(--color3, #fff)" d="M78.021 18.806h-1.928v3.727c0 0.948 0.34 1.422 1.020 1.422 0.313 0 0.572-0.026 0.777-0.079l0.049 1.295c-0.345 0.126-0.799 0.189-1.361 0.189-0.691 0-1.231-0.206-1.62-0.616-0.388-0.411-0.583-1.101-0.583-2.070v-3.87h-1.149v-1.28h1.149v-1.406l1.718-0.506v1.911h1.928v1.282z"></path>
<path fill="#fff" style="fill: var(--color3, #fff)" d="M86.721 21.302c0 1.18-0.346 2.149-1.037 2.906-0.724 0.78-1.686 1.169-2.885 1.169-1.155 0-2.075-0.374-2.761-1.121s-1.029-1.69-1.029-2.827c0-1.19 0.353-2.164 1.061-2.922 0.706-0.758 1.66-1.138 2.859-1.138 1.155 0 2.085 0.374 2.786 1.122 0.671 0.726 1.006 1.662 1.006 2.81zM84.906 21.357c0-0.708-0.155-1.315-0.47-1.822-0.367-0.613-0.891-0.918-1.57-0.918-0.703 0-1.237 0.306-1.604 0.918-0.314 0.507-0.47 1.124-0.47 1.854 0 0.708 0.155 1.315 0.47 1.821 0.378 0.613 0.906 0.918 1.588 0.918 0.668 0 1.192-0.312 1.57-0.934 0.322-0.516 0.485-1.13 0.485-1.837z"></path>
<path fill="#fff" style="fill: var(--color3, #fff)" d="M92.407 19.027c-0.173-0.031-0.358-0.047-0.551-0.047-0.615 0-1.091 0.226-1.426 0.68-0.291 0.4-0.438 0.906-0.438 1.516v4.028h-1.748l0.017-5.259c0-0.885-0.022-1.69-0.066-2.417h1.524l0.064 1.469h0.049c0.185-0.505 0.476-0.911 0.874-1.216 0.39-0.274 0.81-0.411 1.265-0.411 0.161 0 0.308 0.011 0.437 0.031v1.626z"></path>
<path fill="#fff" style="fill: var(--color3, #fff)" d="M100.231 21.002c0 0.306-0.021 0.563-0.064 0.774h-5.248c0.020 0.758 0.274 1.338 0.761 1.738 0.442 0.358 1.014 0.537 1.716 0.537 0.777 0 1.486-0.121 2.124-0.363l0.274 1.184c-0.745 0.317-1.625 0.474-2.639 0.474-1.221 0-2.179-0.35-2.877-1.050-0.695-0.7-1.044-1.64-1.044-2.819 0-1.158 0.324-2.122 0.973-2.89 0.679-0.821 1.598-1.231 2.753-1.231 1.135 0 1.994 0.41 2.577 1.231 0.462 0.652 0.694 1.458 0.694 2.416zM98.562 20.559c0.012-0.506-0.103-0.942-0.34-1.311-0.303-0.474-0.768-0.711-1.394-0.711-0.572 0-1.038 0.231-1.393 0.695-0.291 0.369-0.465 0.811-0.518 1.326l3.644 0.001z"></path>
</symbol>
<symbol id="icon-Logo" viewBox="0 0 32 32">
<path fill="#c4c4c4" style="fill: var(--color4, #c4c4c4)" d="M32 16c0 8.837-7.163 16-16 16s-16-7.163-16-16c0-8.837 7.163-16 16-16s16 7.163 16 16z"></path>
</symbol>
</defs>
</svg>
